<svg width="31" height="32" viewBox="0 0 31 32" fill="none" xmlns="http://www.w3.org/2000/svg">
<g clip-path="url(#clip0_266_318)">
<rect x="0.0478516" y="0.527832" width="30.4565" height="30.6908" fill="white"/>
<path d="M28.8234 31.2187C29.7516 31.2187 30.5043 30.4603 30.5043 29.5249V2.2217C30.5043 1.28611 29.7516 0.527832 28.8234 0.527832H1.72879C0.800222 0.527832 0.0478516 1.28611 0.0478516 2.2217V29.5249C0.0478516 30.4603 0.800222 31.2187 1.72879 31.2187H28.8234Z" fill="#395185"/>
<path d="M21.0623 31.2188V19.3337H25.0213L25.614 14.7019H21.0623V11.7446C21.0623 10.4035 21.432 9.48965 23.3404 9.48965L25.7744 9.48857V5.34592C25.3533 5.28945 23.9085 5.16333 22.2277 5.16333C18.7183 5.16333 16.3158 7.32187 16.3158 11.286V14.7019H12.3467V19.3337H16.3158V31.2188H21.0623Z" fill="white"/>
</g>
<rect x="0.0978516" y="0.577832" width="30.3565" height="30.5908" stroke="#0062DB" stroke-width="0.1"/>
<defs>
<clipPath id="clip0_266_318">
<rect x="0.0478516" y="0.527832" width="30.4565" height="30.6908" fill="white"/>
</clipPath>
</defs>
</svg>
