<svg width="32" height="31" viewBox="0 0 32 31" fill="none" xmlns="http://www.w3.org/2000/svg">
<path d="M28.2459 13.0636H27.2158V13.0105H15.7068V18.1257H22.9338C21.8794 21.1033 19.0463 23.2408 15.7068 23.2408C11.4695 23.2408 8.03407 19.8053 8.03407 15.5681C8.03407 11.3309 11.4695 7.8954 15.7068 7.8954C17.6627 7.8954 19.4421 8.63326 20.797 9.83851L24.414 6.22148C22.1301 4.09294 19.0751 2.78027 15.7068 2.78027C8.64469 2.78027 2.91895 8.50602 2.91895 15.5681C2.91895 22.6302 8.64469 28.3559 15.7068 28.3559C22.7688 28.3559 28.4946 22.6302 28.4946 15.5681C28.4946 14.7107 28.4064 13.8737 28.2459 13.0636Z" fill="#FFC107"/>
<path d="M4.39355 9.616L8.59499 12.6972C9.73183 9.88263 12.4851 7.8954 15.7069 7.8954C17.6628 7.8954 19.4423 8.63326 20.7971 9.83851L24.4142 6.22148C22.1303 4.09294 19.0753 2.78027 15.7069 2.78027C10.7951 2.78027 6.53552 5.55331 4.39355 9.616Z" fill="#FF3D00"/>
<path d="M15.7066 28.3559C19.0097 28.3559 22.011 27.0918 24.2802 25.0362L20.3224 21.687C18.9954 22.6962 17.3738 23.2421 15.7066 23.2408C12.3805 23.2408 9.55632 21.1199 8.49237 18.1602L4.32227 21.3731C6.43865 25.5144 10.7366 28.3559 15.7066 28.3559Z" fill="#4CAF50"/>
<path d="M28.2461 13.0636H27.2161V13.0105H15.707V18.1256H22.9341C22.4297 19.5428 21.5212 20.7811 20.3209 21.6877L20.3228 21.6864L24.2806 25.0355C24.0006 25.29 28.4949 21.962 28.4949 15.5681C28.4949 14.7106 28.4066 13.8737 28.2461 13.0636Z" fill="#1976D2"/>
</svg>
